<svg xmlns="http://www.w3.org/2000/svg" xmlns:xlink="http://www.w3.org/1999/xlink" width="636" height="636" viewBox="0 0 636 636"><defs><filter id="a" x="28" y="32" width="581" height="581" filterUnits="userSpaceOnUse"><feOffset dy="3" input="SourceAlpha"/><feGaussianBlur stdDeviation="3" result="b"/><feFlood flood-opacity="0.161"/><feComposite operator="in" in2="b"/><feComposite in="SourceGraphic"/></filter><clipPath id="d"><rect width="636" height="636"/></clipPath></defs><g id="c" clip-path="url(#d)"><rect width="636" height="636" fill="#f5f5f5"/><g transform="matrix(1, 0, 0, 1, 0, 0)" filter="url(#a)"><rect width="563" height="563" transform="translate(37 38)" fill="#fff8aa"/></g><rect width="563" height="48" transform="translate(37 35)" fill="#fff" opacity="0.263"/><text transform="translate(575 73)" font-size="6" font-family="Helvetica"><tspan x="0" y="0">SBT</tspan></text><g transform="translate(574.587 48.134)"><path d="M21.5,6.68V5a5,5,0,0,0-5-5,5.277,5.277,0,0,0-4.91,5c-.021.022,0,1.485,0,1.9h2.076c0-.073-.054-1.523,0-1.9.059-1.078,1.295-2.923,2.834-2.923A2.927,2.927,0,0,1,19.426,5V6.68H9.884V16.851H23.121V6.68ZM17.329,13v2.233H15.677V13a1.462,1.462,0,1,1,1.652,0Z" transform="translate(-9.884)" fill="#ff7474"/></g><rect width="526" height="464" transform="translate(55 111)" fill="#fff" opacity="0.17"/><text transform="translate(78 134)" font-size="12" font-family="CourierNewPS-BoldMT, Courier New" font-weight="700"><tspan x="0" y="10">Competently streamline optimal relationships for distributed </tspan><tspan x="0" y="24">collaboration and idea-sharing. Efficiently create competitive </tspan><tspan x="0" y="38">partnerships after cross-media channels. Collaboratively </tspan><tspan x="0" y="52">disseminate team building paradigms without visionary interfaces. </tspan><tspan x="0" y="66">Quickly evolve virtual markets rather than diverse schemas. </tspan><tspan x="0" y="80">Enthusiastically synergize resource-leveling value without B2B </tspan><tspan x="0" y="94">outsourcing.</tspan><tspan x="0" y="108"></tspan><tspan x="0" y="122">Professionally mesh stand-alone leadership and covalent e-markets. </tspan><tspan x="0" y="136">Credibly fashion timely testing procedures without error-free e-</tspan><tspan x="0" y="150">services. Competently matrix cross-unit niche markets vis-a-vis </tspan><tspan x="0" y="164">emerging niches. Enthusiastically fashion state of the art portals </tspan><tspan x="0" y="178">without cross functional interfaces. Collaboratively network </tspan><tspan x="0" y="192">compelling partnerships whereas one-to-one mindshare.</tspan><tspan x="0" y="206"></tspan><tspan x="0" y="220">Collaboratively formulate ethical solutions vis-a-vis interactive </tspan><tspan x="0" y="234">outsourcing. Synergistically matrix intuitive paradigms with </tspan><tspan x="0" y="248">inexpensive paradigms. Dynamically predominate pandemic e-services </tspan><tspan x="0" y="262">without holistic initiatives. Seamlessly reconceptualize bleeding-</tspan><tspan x="0" y="276">edge users through principle-centered human capital. </tspan><tspan x="0" y="290">Collaboratively productize focused collaboration and idea-sharing </tspan><tspan x="0" y="304">without scalable “outside the box” thinking.</tspan><tspan x="0" y="318"></tspan><tspan x="0" y="332">Globally target bricks-and-clicks catalysts for change before </tspan><tspan x="0" y="346">client-focused quality vectors. Distinctively empower state of the </tspan><tspan x="0" y="360">art paradigms without strategic architectures. Conveniently </tspan><tspan x="0" y="374">pontificate customized outsourcing rather than dynamic </tspan><tspan x="0" y="388">infrastructures. Proactively productivate market positioning </tspan><tspan x="0" y="402">platforms via low-risk high-yield collaboration and idea-sharing. </tspan></text></g></svg>